<svg xmlns="http://www.w3.org/2000/svg" width="24" height="24" viewBox="0 0 24 24">
  <g fill="none" fill-rule="evenodd">
    <rect width="24" height="24" fill="#D8D8D8" opacity="0"/>
    <path fill="#212120" fill-rule="nonzero" d="M5.85,17.1 C6.7,16.45 7.65,15.9375 8.7,15.5625 C9.75,15.1875 10.85,15 12,15 C13.15,15 14.25,15.1875 15.3,15.5625 C16.35,15.9375 17.3,16.45 18.15,17.1 C18.7333333,16.4166667 19.1875,15.6416667 19.5125,14.775 C19.8375,13.9083333 20,12.9833333 20,12 C20,9.78333333 19.2208333,7.89583333 17.6625,6.3375 C16.1041667,4.77916667 14.2166667,4 12,4 C9.78333333,4 7.89583333,4.77916667 6.3375,6.3375 C4.77916667,7.89583333 4,9.78333333 4,12 C4,12.9833333 4.1625,13.9083333 4.4875,14.775 C4.8125,15.6416667 5.26666667,16.4166667 5.85,17.1 Z M12,13 C11.0166667,13 10.1875,12.6625 9.5125,11.9875 C8.8375,11.3125 8.5,10.4833333 8.5,9.5 C8.5,8.51666667 8.8375,7.6875 9.5125,7.0125 C10.1875,6.3375 11.0166667,6 12,6 C12.9833333,6 13.8125,6.3375 14.4875,7.0125 C15.1625,7.6875 15.5,8.51666667 15.5,9.5 C15.5,10.4833333 15.1625,11.3125 14.4875,11.9875 C13.8125,12.6625 12.9833333,13 12,13 Z M12,22 C10.6166667,22 9.31666667,21.7375 8.1,21.2125 C6.88333333,20.6875 5.825,19.975 4.925,19.075 C4.025,18.175 3.3125,17.1166667 2.7875,15.9 C2.2625,14.6833333 2,13.3833333 2,12 C2,10.6166667 2.2625,9.31666667 2.7875,8.1 C3.3125,6.88333333 4.025,5.825 4.925,4.925 C5.825,4.025 6.88333333,3.3125 8.1,2.7875 C9.31666667,2.2625 10.6166667,2 12,2 C13.3833333,2 14.6833333,2.2625 15.9,2.7875 C17.1166667,3.3125 18.175,4.025 19.075,4.925 C19.975,5.825 20.6875,6.88333333 21.2125,8.1 C21.7375,9.31666667 22,10.6166667 22,12 C22,13.3833333 21.7375,14.6833333 21.2125,15.9 C20.6875,17.1166667 19.975,18.175 19.075,19.075 C18.175,19.975 17.1166667,20.6875 15.9,21.2125 C14.6833333,21.7375 13.3833333,22 12,22 Z"/>
  </g>
</svg>
