<svg xmlns="http://www.w3.org/2000/svg" width="24" height="24" viewBox="0 0 24 24">
  <g fill="none" fill-rule="evenodd">
    <rect width="24" height="24"/>
    <path fill="#F29900" fill-rule="nonzero" d="M8.25,18.5 C6.51666667,18.5 5.04166667,17.8916667 3.825,16.675 C2.60833333,15.4583333 2,13.9833333 2,12.25 C2,10.5166667 2.60833333,9.04166667 3.825,7.825 C5.04166667,6.60833333 6.51666667,6 8.25,6 L17.5,6 C18.75,6 19.8125,6.4375 20.6875,7.3125 C21.5625,8.1875 22,9.25 22,10.5 C22,11.75 21.5625,12.8125 20.6875,13.6875 C19.8125,14.5625 18.75,15 17.5,15 L8.75,15 C7.98333333,15 7.33333333,14.7333333 6.8,14.2 C6.26666667,13.6666667 6,13.0166667 6,12.25 C6,11.4833333 6.26666667,10.8333333 6.8,10.3 C7.33333333,9.76666667 7.98333333,9.5 8.75,9.5 L18,9.5 L18,11.5 L8.75,11.5 C8.53333333,11.5 8.35416667,11.5708333 8.2125,11.7125 C8.07083333,11.8541667 8,12.0333333 8,12.25 C8,12.4666667 8.07083333,12.6458333 8.2125,12.7875 C8.35416667,12.9291667 8.53333333,13 8.75,13 L17.5,13 C18.2,12.9833333 18.7916667,12.7375 19.275,12.2625 C19.7583333,11.7875 20,11.2 20,10.5 C20,9.8 19.7583333,9.20833333 19.275,8.725 C18.7916667,8.24166667 18.2,8 17.5,8 L8.25,8 C7.06666667,7.98333333 6.0625,8.39166667 5.2375,9.225 C4.4125,10.0583333 4,11.0666667 4,12.25 C4,13.4166667 4.4125,14.4083333 5.2375,15.225 C6.0625,16.0416667 7.06666667,16.4666667 8.25,16.5 L18,16.5 L18,18.5 L8.25,18.5 Z"/>
  </g>
</svg>
