<svg xmlns="http://www.w3.org/2000/svg" width="24" height="24" viewBox="0 0 24 24">
  <g fill="none" fill-rule="evenodd">
    <rect width="24" height="24"/>
    <path fill="#212120" fill-rule="nonzero" d="M2,22 L2,4 C2,3.45 2.19583333,2.97916667 2.5875,2.5875 C2.97916667,2.19583333 3.45,2 4,2 L20,2 C20.55,2 21.0208333,2.19583333 21.4125,2.5875 C21.8041667,2.97916667 22,3.45 22,4 L22,16 C22,16.55 21.8041667,17.0208333 21.4125,17.4125 C21.0208333,17.8041667 20.55,18 20,18 L6,18 L2,22 Z M6,14 L14,14 L14,12 L6,12 L6,14 Z M6,11 L18,11 L18,9 L6,9 L6,11 Z M6,8 L18,8 L18,6 L6,6 L6,8 Z"/>
  </g>
</svg>
