<svg xmlns="http://www.w3.org/2000/svg" width="24" height="24" viewBox="0 0 24 24">
  <g fill="none" fill-rule="evenodd">
    <rect width="24" height="24" fill="#D8D8D8" opacity="0"/>
    <path fill="#212120" fill-rule="nonzero" d="M8.6,14.6 L15.65,7.55 L14.25,6.15 L8.6,11.8 L5.75,8.95 L4.35,10.35 L8.6,14.6 Z M10,20 C8.61666667,20 7.31666667,19.7375 6.1,19.2125 C4.88333333,18.6875 3.825,17.975 2.925,17.075 C2.025,16.175 1.3125,15.1166667 0.7875,13.9 C0.2625,12.6833333 0,11.3833333 0,10 C0,8.61666667 0.2625,7.31666667 0.7875,6.1 C1.3125,4.88333333 2.025,3.825 2.925,2.925 C3.825,2.025 4.88333333,1.3125 6.1,0.7875 C7.31666667,0.2625 8.61666667,0 10,0 C11.3833333,0 12.6833333,0.2625 13.9,0.7875 C15.1166667,1.3125 16.175,2.025 17.075,2.925 C17.975,3.825 18.6875,4.88333333 19.2125,6.1 C19.7375,7.31666667 20,8.61666667 20,10 C20,11.3833333 19.7375,12.6833333 19.2125,13.9 C18.6875,15.1166667 17.975,16.175 17.075,17.075 C16.175,17.975 15.1166667,18.6875 13.9,19.2125 C12.6833333,19.7375 11.3833333,20 10,20 Z" transform="translate(2 2)"/>
  </g>
</svg>
