<svg xmlns="http://www.w3.org/2000/svg" width="24" height="24" viewBox="0 0 24 24">
  <g fill="none" fill-rule="evenodd">
    <rect width="24" height="24"/>
    <path fill="#212120" fill-rule="nonzero" d="M4,20 C3.45,20 2.97916667,19.8041667 2.5875,19.4125 C2.19583333,19.0208333 2,18.55 2,18 L2,15 L11,15 C11.55,15 12.0208333,14.8041667 12.4125,14.4125 C12.8041667,14.0208333 13,13.55 13,13 L13,4 L20,4 C20.55,4 21.0208333,4.19583333 21.4125,4.5875 C21.8041667,4.97916667 22,5.45 22,6 L22,18 C22,18.55 21.8041667,19.0208333 21.4125,19.4125 C21.0208333,19.8041667 20.55,20 20,20 L4,20 Z M2,14 L2,8 C2,7.45 2.19583333,6.97916667 2.5875,6.5875 C2.97916667,6.19583333 3.45,6 4,6 L10,6 L2,14 Z M5.825,13 L11,7.825 L11,13 L5.825,13 Z"/>
  </g>
</svg>
