<svg xmlns="http://www.w3.org/2000/svg" width="24" height="24" viewBox="0 0 24 24">
  <g fill="none" fill-rule="evenodd">
    <rect width="24" height="24"/>
    <path fill="#212120" fill-rule="nonzero" d="M7,21 C6.45,21 5.97916667,20.8041667 5.5875,20.4125 C5.19583333,20.0208333 5,19.55 5,19 L5,6 L4,6 L4,4 L9,4 L9,3 L15,3 L15,4 L20,4 L20,6 L19,6 L19,19 C19,19.55 18.8041667,20.0208333 18.4125,20.4125 C18.0208333,20.8041667 17.55,21 17,21 L7,21 Z M9,17 L11,17 L11,8 L9,8 L9,17 Z M13,17 L15,17 L15,8 L13,8 L13,17 Z"/>
  </g>
</svg>
