<svg xmlns="http://www.w3.org/2000/svg" width="40" height="40" viewBox="0 0 40 40">
  <g fill="none" fill-rule="evenodd">
    <rect width="40" height="40" fill="#D8D8D8" opacity="0"/>
    <path fill="#212120" d="M20,15 C21.1045695,15 22,14.1045695 22,13 C22,11.8954305 21.1045695,11 20,11 C18.8954305,11 18,11.8954305 18,13 C18,14.1045695 18.8954305,15 20,15 Z M20,16 L19,16 L19,16 L16.5,16 C15.6715729,16 15,16.6715729 15,17.5 C15,18.3284271 15.6715729,19 16.5,19 L19,19 L19,19 L19,25 L15.5,25 C14.6715729,25 14,25.6715729 14,26.5 C14,27.3284271 14.6715729,28 15.5,28 L25.5,28 C26.3284271,28 27,27.3284271 27,26.5 C27,25.6715729 26.3284271,25 25.5,25 L22,25 L22,25 L22,19 L22,18 C22,16.8954305 21.1045695,16 20,16 Z"/>
    <path fill="#F29900" d="M3,27 C2.44771525,27 2,26.5522847 2,26 C2,25.4477153 2.44771525,25 3,25 L5,25 L5,23 L3,23 C2.44771525,23 2,22.5522847 2,22 C2,21.4477153 2.44771525,21 3,21 L5,21 L5,19 L3,19 C2.44771525,19 2,18.5522847 2,18 C2,17.4477153 2.44771525,17 3,17 L5,17 L5,15 L3,15 C2.44771525,15 2,14.5522847 2,14 C2,13.4477153 2.44771525,13 3,13 L5,13 C5,8.581722 8.581722,5 13,5 L13,3 C13,2.44771525 13.4477153,2 14,2 C14.5522847,2 15,2.44771525 15,3 L15,5 L17,5 L17,3 C17,2.44771525 17.4477153,2 18,2 C18.5522847,2 19,2.44771525 19,3 L19,5 L21,5 L21,3 C21,2.44771525 21.4477153,2 22,2 C22.5522847,2 23,2.44771525 23,3 L23,5 L25,5 L25,3 C25,2.44771525 25.4477153,2 26,2 C26.5522847,2 27,2.44771525 27,3 L27,5 C31.418278,5 35,8.581722 35,13 L35,13 L37,13 C37.5522847,13 38,13.4477153 38,14 C38,14.5522847 37.5522847,15 37,15 L35,15 L35,17 L37,17 C37.5522847,17 38,17.4477153 38,18 C38,18.5522847 37.5522847,19 37,19 L35,19 L35,21 L37,21 C37.5522847,21 38,21.4477153 38,22 C38,22.5522847 37.5522847,23 37,23 L35,23 L35,25 L37,25 C37.5522847,25 38,25.4477153 38,26 C38,26.5522847 37.5522847,27 37,27 L35,27 C35,31.418278 31.418278,35 27,35 L27,37 C27,37.5522847 26.5522847,38 26,38 C25.4477153,38 25,37.5522847 25,37 L25,35 L23,35 L23,37 C23,37.5522847 22.5522847,38 22,38 C21.4477153,38 21,37.5522847 21,37 L21,35 L19,35 L19,37 C19,37.5522847 18.5522847,38 18,38 C17.4477153,38 17,37.5522847 17,37 L17,35 L15,35 L15,37 C15,37.5522847 14.5522847,38 14,38 C13.4477153,38 13,37.5522847 13,37 L13,35 C8.581722,35 5,31.418278 5,27 L3,27 Z M27,9 L13,9 C10.790861,9 9,10.790861 9,13 L9,27 C9,29.209139 10.790861,31 13,31 L27,31 C29.209139,31 31,29.209139 31,27 L31,13 C31,10.790861 29.209139,9 27,9 Z"/>
  </g>
</svg>
