<svg xmlns="http://www.w3.org/2000/svg" width="76" height="64" viewBox="0 0 76 64">
  <g fill="none" fill-rule="evenodd">
    <path fill="#FAF7F5" fill-rule="nonzero" d="M2.51772837 5.01867816L2.68757512 6.52729885C3.07389323 5.9841954 3.54346955 5.56345785 4.09630409 5.26508621 4.64913862 4.96671456 5.26191907 4.81752874 5.93464543 4.81752874 6.48081931 4.81752874 6.98036859 4.89798851 7.43329327 5.05890805 7.88621795 5.21982759 8.27753155 5.4762931 8.60723407 5.8283046 8.9369366 6.18031609 9.1933719 6.6329023 9.37653996 7.18606322 9.55970803 7.73922414 9.65129207 8.41139847 9.65129207 9.20258621L9.65129207 15.9008621 6.87379808 15.9008621 6.87379808 9.24281609C6.87379808 8.81369732 6.82550831 8.46000958 6.72892879 8.18175287 6.63234926 7.90349617 6.49414063 7.68390805 6.31430288 7.52298851 6.13446514 7.36206897 5.91799379 7.24976054 5.66488882 7.18606322 5.41178385 7.1223659 5.1253756 7.09051724 4.80566406 7.09051724 4.33275741 7.09051724 3.92978766 7.18606322 3.59675481 7.37715517 3.26372196 7.56824713 2.99396534 7.83141762 2.78748498 8.16666667L2.78748498 15.9008621 0 15.9008621 0 5.01867816 2.51772837 5.01867816zM14.9664964 15.9008621L14.9664964 7.08045977 12.1290565 7.08045977 12.1290565 5.01867816 14.9664964 5.01867816 14.9664964 4.42528736C14.9664964 3.70785441 15.0797276 3.07423372 15.3061899 2.52442529 15.5326522 1.97461686 15.8556941 1.51197318 16.2753155 1.13649425 16.6949369.761015326 17.2044772.477729885 17.8039363.286637931 18.4033954.095545977 19.0727915 0 19.8121244 0 20.0452474 0 20.2700446.00838122605 20.4865159.0251436782 20.7029873.0419061303 20.9144631.063697318 21.1209435.0905172414 21.3274239.117337165 21.5355694.147509579 21.7453801.181034483 21.9551908.214559387 22.1733273.251436782 22.3997897.291666667L22.2199519 2.4841954C21.966847 2.43055556 21.6804387 2.38362069 21.3607272 2.3433908 21.0410156 2.30316092 20.6646885 2.28304598 20.2317458 2.28304598 19.3658604 2.28304598 18.7364283 2.46743295 18.3434495 2.8362069 17.9504708 3.20498084 17.7539814 3.73467433 17.7539814 4.42528736L17.7539814 5.01867816 21.6504657 5.01867816 21.6504657 7.08045977 17.7539814 7.08045977 17.7539814 15.9008621 14.9664964 15.9008621zM29.80311 16.1020115C28.9705278 16.1020115 28.2145433 15.9645594 27.5351563 15.6896552 26.8557692 15.414751 26.2729617 15.0409483 25.7867338 14.5682471 25.3005058 14.095546 24.9258439 13.5390326 24.6627479 12.8987069 24.3996519 12.2583812 24.268104 11.5727969 24.268104 10.841954L24.268104 10.4396552C24.268104 9.60823755 24.3979868 8.84889847 24.6577524 8.16163793 24.917518 7.47437739 25.2805238 6.88266284 25.7467698 6.38649425 26.2130158 5.89032567 26.7658504 5.50478927 27.4052734 5.22988506 28.0446965 4.95498084 28.7407352 4.81752874 29.4933894 4.81752874 30.2726863 4.81752874 30.9670598 4.94659962 31.5765099 5.20474138 32.18596 5.46288314 32.702161 5.82662835 33.1251127 6.29597701 33.5480644 6.76532567 33.8694411 7.33022031 34.0892428 7.99066092 34.3090445 8.65110153 34.4189453 9.3802682 34.4189453 10.1781609L34.4189453 11.3649425 27.0855619 11.3649425C27.1388472 11.7337165 27.2470828 12.0706418 27.4102689 12.3757184 27.573455 12.680795 27.7816006 12.9439655 28.0347055 13.1652299 28.2878105 13.3864943 28.5775491 13.5574713 28.9039213 13.6781609 29.2302935 13.7988506 29.5866386 13.8591954 29.9729567 13.8591954 30.2460437 13.8591954 30.5174654 13.8323755 30.7872221 13.7787356 31.0569787 13.7250958 31.3150791 13.6463123 31.5615234 13.5423851 31.8079677 13.4384579 32.0377604 13.309387 32.2509014 13.1551724 32.4640425 13.0009579 32.6505409 12.8199234 32.8103966 12.612069L34.1991436 14.1206897C34.0259665 14.3687739 33.8011694 14.6118295 33.5247521 14.8498563 33.2483348 15.0878831 32.9219626 15.29909 32.5456355 15.483477 32.1693084 15.667864 31.7513522 15.8170498 31.2917668 15.9310345 30.8321815 16.0450192 30.3359625 16.1020115 29.80311 16.1020115zM29.4734075 7.08045977C29.1603566 7.08045977 28.8739483 7.13577586 28.6141827 7.24640805 28.3544171 7.35704023 28.1262896 7.51628352 27.9298002 7.72413793 27.7333108 7.93199234 27.5684595 8.18007663 27.4352464 8.4683908 27.3020333 8.75670498 27.2021234 9.07854406 27.1355168 9.43390805L31.6914063 9.43390805 31.6914063 9.21264368C31.6780849 8.91762452 31.6214694 8.63936782 31.5215595 8.37787356 31.4216496 8.11637931 31.2784455 7.89008621 31.0919471 7.69899425 30.9054487 7.5079023 30.6773212 7.35704023 30.4075646 7.24640805 30.137808 7.13577586 29.8264223 7.08045977 29.4734075 7.08045977zM44.5997596 4.81752874C45.019381 4.81752874 45.4073643 4.8460249 45.7637094 4.90301724 46.1200546 4.96000958 46.408128 5.02203065 46.6279297 5.08908046L46.2182993 7.875C45.8519631 7.78783525 45.4773012 7.72246169 45.0943134 7.67887931 44.7113256 7.63529693 44.3466546 7.61350575 44.0003005 7.61350575 43.2210036 7.61350575 42.596567 7.76436782 42.1269907 8.06609195 41.6574144 8.36781609 41.3060647 8.80028736 41.0729417 9.36350575L41.0729417 15.9008621 38.2954477 15.9008621 38.2954477 5.01867816 40.883113 5.01867816 41.0129958 6.79885057C41.4525992 6.18199234 41.9787911 5.69755747 42.5915715 5.34554598 43.204352 4.99353448 43.873748 4.81752874 44.5997596 4.81752874z" transform="translate(29.23 3.226)"/>
    <path fill="#EEEBE9" d="M13.1538462,9.56321839 C13.9610316,9.56321839 14.6153846,8.9045109 14.6153846,8.09195402 C14.6153846,7.27939715 13.9610316,6.62068966 13.1538462,6.62068966 C12.3466608,6.62068966 11.6923077,7.27939715 11.6923077,8.09195402 C11.6923077,8.9045109 12.3466608,9.56321839 13.1538462,9.56321839 Z M13.8881119,10.2988506 L12.4230769,10.2988506 L12.4230769,10.2988506 L10.6034483,10.2988506 C9.99403062,10.2988506 9.5,10.7928812 9.5,11.4022989 C9.5,12.0117165 9.99403062,12.5057471 10.6034483,12.5057471 L12.4230769,12.5057471 L12.4230769,12.5057471 L12.4230769,16.9195402 L9.87267905,16.9195402 C9.26326139,16.9195402 8.76923077,17.4135709 8.76923077,18.0229885 C8.76923077,18.6324062 9.26326139,19.1264368 9.87267905,19.1264368 L17.1657825,19.1264368 C17.7752001,19.1264368 18.2692308,18.6324062 18.2692308,18.0229885 C18.2692308,17.4135709 17.7752001,16.9195402 17.1657825,16.9195402 L14.6153846,16.9195402 L14.6153846,16.9195402 L14.6153846,12.5057471 L14.6153846,11.0261233 C14.6153846,10.6244617 14.2897735,10.2988506 13.8881119,10.2988506 Z"/>
    <path fill="#F29900" d="M17.5384615,0 C17.9420542,-1.11022302e-16 18.2692308,0.327176529 18.2692308,0.730769231 L18.269,2.206 L18.2972028,2.20689655 C21.5104959,2.20689655 24.1153846,4.81178528 24.1153846,8.02507837 L24.115,8.091 L25.5720601,8.09195402 C25.9783386,8.09195402 26.3076923,8.42130777 26.3076923,8.82758621 C26.3076923,9.23386464 25.9783386,9.56321839 25.5720601,9.56321839 L24.115,9.563 L24.115,11.034 L25.5720601,11.0344828 C25.9783386,11.0344828 26.3076923,11.3638365 26.3076923,11.7701149 C26.3076923,12.1763934 25.9783386,12.5057471 25.5720601,12.5057471 L24.115,12.505 L24.115,13.977 L25.5720601,13.9770115 C25.9783386,13.9770115 26.3076923,14.3063652 26.3076923,14.7126437 C26.3076923,15.1189221 25.9783386,15.4482759 25.5720601,15.4482759 L24.115,15.448 L24.115,16.919 L25.5720601,16.9195402 C25.9783386,16.9195402 26.3076923,17.248894 26.3076923,17.6551724 C26.3076923,18.0614509 25.9783386,18.3908046 25.5720601,18.3908046 L24.115,18.39 L24.1153846,18.4576803 C24.1153846,21.6709733 21.5104959,24.2758621 18.2972028,24.2758621 L18.269,24.275 L18.2692308,25.7519894 C18.2692308,26.1555821 17.9420542,26.4827586 17.5384615,26.4827586 C17.1348688,26.4827586 16.8076923,26.1555821 16.8076923,25.7519894 L16.807,24.275 L15.346,24.275 L15.3461538,25.7519894 C15.3461538,26.1555821 15.0189773,26.4827586 14.6153846,26.4827586 C14.2117919,26.4827586 13.8846154,26.1555821 13.8846154,25.7519894 L13.884,24.275 L12.423,24.275 L12.4230769,25.7519894 C12.4230769,26.1555821 12.0959004,26.4827586 11.6923077,26.4827586 C11.288715,26.4827586 10.9615385,26.1555821 10.9615385,25.7519894 L10.961,24.275 L9.499,24.275 L9.5,25.7519894 C9.5,26.1555821 9.17282347,26.4827586 8.76923077,26.4827586 C8.36563807,26.4827586 8.03846154,26.1555821 8.03846154,25.7519894 L8.038,24.275 L8.01048951,24.2758621 C4.79719642,24.2758621 2.19230769,21.6709733 2.19230769,18.4576803 L2.192,18.39 L0.735632184,18.3908046 C0.329353747,18.3908046 0,18.0614509 0,17.6551724 C0,17.248894 0.329353747,16.9195402 0.735632184,16.9195402 L2.192,16.919 L2.192,15.448 L0.735632184,15.4482759 C0.329353747,15.4482759 0,15.1189221 0,14.7126437 C0,14.3063652 0.329353747,13.9770115 0.735632184,13.9770115 L2.192,13.977 L2.192,12.505 L0.735632184,12.5057471 C0.329353747,12.5057471 0,12.1763934 0,11.7701149 C0,11.3638365 0.329353747,11.0344828 0.735632184,11.0344828 L2.192,11.034 L2.192,9.563 L0.735632184,9.56321839 C0.329353747,9.56321839 0,9.23386464 0,8.82758621 C0,8.42130777 0.329353747,8.09195402 0.735632184,8.09195402 L2.192,8.091 L2.19230769,8.02507837 C2.19230769,4.81178528 4.79719642,2.20689655 8.01048951,2.20689655 L8.038,2.206 L8.03846154,0.730769231 C8.03846154,0.327176529 8.36563807,0 8.76923077,0 C9.17282347,-1.11022302e-16 9.5,0.327176529 9.5,0.730769231 L9.499,2.206 L10.961,2.206 L10.9615385,0.730769231 C10.9615385,0.327176529 11.288715,0 11.6923077,0 C12.0959004,-1.11022302e-16 12.4230769,0.327176529 12.4230769,0.730769231 L12.423,2.206 L13.884,2.206 L13.8846154,0.730769231 C13.8846154,0.327176529 14.2117919,0 14.6153846,0 C15.0189773,-1.11022302e-16 15.3461538,0.327176529 15.3461538,0.730769231 L15.346,2.206 L16.807,2.206 L16.8076923,0.730769231 C16.8076923,0.327176529 17.1348688,0 17.5384615,0 Z M18.2832168,5.14942529 L8.02447552,5.14942529 C6.41782898,5.14942529 5.11538462,6.45186965 5.11538462,8.0585162 L5.11538462,18.4242424 C5.11538462,20.030889 6.41782898,21.3333333 8.02447552,21.3333333 L18.2832168,21.3333333 C19.8898633,21.3333333 21.1923077,20.030889 21.1923077,18.4242424 L21.1923077,8.0585162 C21.1923077,6.45186965 19.8898633,5.14942529 18.2832168,5.14942529 Z"/>
    <g fill="#FAF7F5" fill-rule="nonzero" transform="translate(0 30.897)">
      <polygon points="19.01 18.185 6.092 18.185 6.092 27.321 21.192 27.321 21.192 32.368 0 32.368 0 0 21.127 0 21.127 5.091 6.092 5.091 6.092 13.249 19.01 13.249"/>
      <path d="M42.9359213 24.2684811C42.9359213 23.692769 42.8380322 23.1539615 42.642254 22.6520586 42.4464758 22.1501557 42.1129278 21.681467 41.64161 21.2459924 41.1702922 20.8105178 40.5539535 20.4119479 39.7925939 20.0502826 39.0312343 19.6886172 38.0849732 19.3527851 36.9538104 19.0427863 35.5761121 18.6589782 34.2600477 18.1792181 33.0056172 17.6035059 31.7511866 17.0277938 30.6454025 16.3339869 29.6882648 15.5220851 28.731127 14.7101834 27.9661419 13.765425 27.3933095 12.6878099 26.820477 11.6101949 26.5340608 10.3701995 26.5340608 8.96782378 26.5340608 7.60973359 26.8168515 6.37711913 27.3824329 5.26998039 27.9480143 4.16284166 28.731127 3.21808327 29.731771 2.43570522 30.732415 1.65332718 31.9143351 1.0517818 33.2775313.631069081 34.6407275.21035636 36.1199404 0 37.7151699 0 39.3684079 0 40.8802504.243570522 42.2506977.730711567 43.6211449 1.21785261 44.7994395 1.90058817 45.7855814 2.77891823 46.7717233 3.6572483 47.5403339 4.70164918 48.0914132 5.91212086 48.6424925 7.12259255 48.9180322 8.45115904 48.9180322 9.89782032L42.9576744 9.89782032C42.9286702 9.17448968 42.801777 8.51020644 42.5769946 7.90497059 42.3522123 7.29973475 42.0186643 6.77937954 41.5763506 6.34390497 41.134037 5.9084304 40.5829577 5.56890785 39.9231127 5.32533733 39.2632677 5.08176681 38.4910316 4.95998155 37.6064043 4.95998155 36.7942874 4.95998155 36.0728086 5.05962403 35.4419678 5.25890901 34.811127 5.45819398 34.2781753 5.73866913 33.8431127 6.10033445 33.4080501 6.46199977 33.0781276 6.89009341 32.8533453 7.38461538 32.6285629 7.87913735 32.5161717 8.41425441 32.5161717 8.98996656 32.5161717 9.5952024 32.6648181 10.1413908 32.9621109 10.6285319 33.2594037 11.1156729 33.6908408 11.554838 34.2564222 11.946027 34.8220036 12.337216 35.5072272 12.6951909 36.312093 13.0199516 37.1169589 13.3447123 38.0269648 13.6473302 39.0421109 13.9278053 40.4923196 14.355899 41.8265116 14.8799446 43.0446869 15.4999423 44.2628623 16.11994 45.310638 16.8543421 46.1880143 17.7031484 47.0653906 18.5519548 47.7469887 19.518856 48.2328086 20.6038519 48.7186285 21.6888479 48.9615385 22.8956291 48.9615385 24.2241956 48.9615385 25.6413332 48.6823733 26.8997809 48.1240429 27.9995387 47.5657126 29.0992965 46.7934764 30.029293 45.8073345 30.7895283 44.8211926 31.5497636 43.6465236 32.1254757 42.2833274 32.5166647 40.9201312 32.9078538 39.4336673 33.1034483 37.8239356 33.1034483 36.8232916 33.1034483 35.8262731 33.0111867 34.8328801 32.8266636 33.8394872 32.6421405 32.8896005 32.3579749 31.98322 31.9741668 31.0768396 31.5903587 30.232093 31.1105985 29.4489803 30.5348864 28.6658676 29.9591743 27.9878951 29.2875101 27.4150626 28.5198939 26.8422302 27.7522777 26.3926655 26.8813286 26.0663685 25.9070465 25.7400716 24.9327644 25.5769231 23.8551493 25.5769231 22.6742014L31.5807871 22.6742014C31.6097913 23.6484835 31.7765653 24.482528 32.0811091 25.1763349 32.385653 25.8701419 32.809839 26.4384731 33.3536673 26.8813286 33.8974955 27.3241841 34.5500894 27.6489448 35.311449 27.8556107 36.0728086 28.0622766 36.9103041 28.1656095 37.8239356 28.1656095 38.6360525 28.1656095 39.3575313 28.0696575 39.9883721 27.8777534 40.6192129 27.6858494 41.1521646 27.4201361 41.5872272 27.0806135 42.0222898 26.741091 42.3558378 26.3314497 42.5878712 25.8516895 42.8199046 25.3719294 42.9359213 24.8441933 42.9359213 24.2684811zM76 28.8991333C75.6097902 29.3859487 75.0750583 29.8801401 74.3958042 30.3817075 73.7165501 30.8832749 72.9108392 31.3368984 71.9786713 31.7425779 71.0465035 32.1482574 70.002331 32.476489 68.8461538 32.7272727 67.6899767 32.9780564 66.4470862 33.1034483 65.1174825 33.1034483 63.3254079 33.1034483 61.7067599 32.7789047 60.2615385 32.1298174 58.816317 31.4807302 57.5806527 30.5439793 56.5545455 29.3195648 55.5284382 28.0951503 54.7371795 26.5941361 54.1807692 24.8165222 53.624359 23.0389084 53.3461538 21.0215748 53.3461538 18.7645215L53.3461538 14.3831827C53.3461538 12.1261294 53.6388112 10.1087959 54.2241259 8.331182 54.8094406 6.55356814 55.6187646 5.04517795 56.6520979 3.80601143 57.6854312 2.56684492 58.8994172 1.62271805 60.2940559.973630832 61.6886946.324543611 63.2025641 0 64.8356643 0 66.6132867 0 68.1632867.228655726 69.4856643.685967177 70.808042 1.14327863 71.9244755 1.80342984 72.834965 2.6664208 73.7454545 3.52941176 74.4572261 4.5804905 74.9702797 5.81965702 75.4833333 7.05882353 75.8193473 8.45288586 75.9783217 10.001844L70.0384615 10.001844C69.8361305 8.34962198 69.3483683 7.10676747 68.5751748 6.27328047 67.8019814 5.43979347 66.6060606 5.02304997 64.9874126 5.02304997 64.206993 5.02304997 63.4843823 5.22588973 62.8195804 5.63156924 62.1547786 6.03724876 61.57669 6.63101604 61.0853147 7.4128711 60.5939394 8.19472617 60.2037296 9.164669 59.9146853 10.3226996 59.625641 11.4807302 59.4811189 12.8194726 59.4811189 14.3389268L59.4811189 18.7645215C59.4955711 21.7739259 59.9869464 24.0789231 60.9552448 25.6795132 61.9235431 27.2801033 63.4048951 28.0877743 65.3993007 28.1025263 65.8762238 28.1025263 66.3459207 28.0656463 66.8083916 27.9918864 67.2708625 27.9181265 67.7044289 27.8148626 68.1090909 27.6820948 68.5137529 27.5493269 68.8714452 27.3981191 69.1821678 27.2284713 69.4928904 27.0588235 69.7277389 26.8781117 69.8867133 26.686336L69.9083916 20.844551 64.6839161 20.844551 64.6839161 16.1976766 75.9783217 16.1976766 76 28.8991333z"/>
    </g>
  </g>
</svg>
