<svg xmlns="http://www.w3.org/2000/svg" width="106" height="90" viewBox="0 0 106 90">
  <g fill="none" fill-rule="evenodd">
    <text fill="#212120" font-family="RobotoMono-Bold, Roboto Mono" font-size="28" font-weight="bold">
      <tspan x="38" y="29">nfer</tspan>
    </text>
    <circle cx="18" cy="14" r="2" fill="#212120"/>
    <path fill="#F29900" d="M1,28 C0.44771525,28 0,27.5522847 0,27 C0,26.4477153 0.44771525,26 1,26 L3,26 L3,24 L1,24 C0.44771525,24 0,23.5522847 0,23 C0,22.4477153 0.44771525,22 1,22 L3,22 L3,20 L1,20 C0.44771525,20 0,19.5522847 0,19 C0,18.4477153 0.44771525,18 1,18 L3,18 L3,16 L1,16 C0.44771525,16 0,15.5522847 0,15 C0,14.4477153 0.44771525,14 1,14 L3,14 C3,9.581722 6.581722,6 11,6 L11,4 C11,3.44771525 11.4477153,3 12,3 C12.5522847,3 13,3.44771525 13,4 L13,6 L15,6 L15,4 C15,3.44771525 15.4477153,3 16,3 C16.5522847,3 17,3.44771525 17,4 L17,6 L19,6 L19,4 C19,3.44771525 19.4477153,3 20,3 C20.5522847,3 21,3.44771525 21,4 L21,6 L23,6 L23,4 C23,3.44771525 23.4477153,3 24,3 C24.5522847,3 25,3.44771525 25,4 L25,6 C29.418278,6 33,9.581722 33,14 L33,14 L35,14 C35.5522847,14 36,14.4477153 36,15 C36,15.5522847 35.5522847,16 35,16 L33,16 L33,18 L35,18 C35.5522847,18 36,18.4477153 36,19 C36,19.5522847 35.5522847,20 35,20 L33,20 L33,22 L35,22 C35.5522847,22 36,22.4477153 36,23 C36,23.5522847 35.5522847,24 35,24 L33,24 L33,26 L35,26 C35.5522847,26 36,26.4477153 36,27 C36,27.5522847 35.5522847,28 35,28 L33,28 C33,32.418278 29.418278,36 25,36 L25,38 C25,38.5522847 24.5522847,39 24,39 C23.4477153,39 23,38.5522847 23,38 L23,36 L21,36 L21,38 C21,38.5522847 20.5522847,39 20,39 C19.4477153,39 19,38.5522847 19,38 L19,36 L17,36 L17,38 C17,38.5522847 16.5522847,39 16,39 C15.4477153,39 15,38.5522847 15,38 L15,36 L13,36 L13,38 C13,38.5522847 12.5522847,39 12,39 C11.4477153,39 11,38.5522847 11,38 L11,36 C6.581722,36 3,32.418278 3,28 L1,28 Z M25,10 L11,10 C8.790861,10 7,11.790861 7,14 L7,28 C7,30.209139 8.790861,32 11,32 L25,32 C27.209139,32 29,30.209139 29,28 L29,14 C29,11.790861 27.209139,10 25,10 Z"/>
    <path fill="#212120" d="M19,17 L20,17 L20,17 L22.5,17 C23.3284271,17 24,17.6715729 24,18.5 C24,19.3284271 23.3284271,20 22.5,20 L20,20 L20,20 L20,26 L23.5,26 C24.3284271,26 25,26.6715729 25,27.5 C25,28.3284271 24.3284271,29 23.5,29 L13.5,29 C12.6715729,29 12,28.3284271 12,27.5 C12,26.6715729 12.6715729,26 13.5,26 L17,26 L17,26 L17,20 L17,19 C17,17.8954305 17.8954305,17 19,17 Z" transform="matrix(-1 0 0 1 37 0)"/>
    <g fill="#212120" fill-rule="nonzero" transform="translate(0 45)">
      <polygon points="26.014 24.72 8.336 24.72 8.336 37.14 29 37.14 29 44 0 44 0 0 28.911 0 28.911 6.92 8.336 6.92 8.336 18.011 26.014 18.011"/>
      <path d="M58.7544186 32.9899666C58.7544186 32.2073579 58.6204651 31.4749164 58.3525581 30.7926421 58.0846512 30.1103679 57.6282171 29.4732441 56.9832558 28.8812709 56.3382946 28.2892977 55.4948837 27.7474916 54.4530233 27.2558528 53.4111628 26.764214 52.1162791 26.3076923 50.5683721 25.8862876 48.6831008 25.3645485 46.8821705 24.7123746 45.1655814 23.9297659 43.4489922 23.1471572 41.935814 22.2040134 40.6260465 21.1003344 39.3162791 19.9966555 38.2694574 18.7123746 37.4855814 17.2474916 36.7017054 15.7826087 36.3097674 14.09699 36.3097674 12.1906355 36.3097674 10.3444816 36.6967442 8.66889632 37.4706977 7.1638796 38.2446512 5.65886288 39.3162791 4.37458194 40.6855814 3.31103679 42.0548837 2.24749164 43.6722481 1.42976589 45.5376744.857859532 47.4031008.285953177 49.4272868 0 51.6102326 0 53.8725581 0 55.9413953.331103679 57.8167442.993311037 59.692093 1.65551839 61.3044961 2.58361204 62.6539535 3.77759197 64.0034109 4.97157191 65.0551938 6.39130435 65.8093023 8.0367893 66.5634109 9.68227425 66.9404651 11.4882943 66.9404651 13.4548495L58.784186 13.4548495C58.7444961 12.4715719 58.5708527 11.5685619 58.2632558 10.7458194 57.9556589 9.92307692 57.4992248 9.21571906 56.8939535 8.62374582 56.2886822 8.03177258 55.5345736 7.57023411 54.6316279 7.23913043 53.7286822 6.90802676 52.671938 6.74247492 51.4613953 6.74247492 50.3500775 6.74247492 49.3627907 6.87792642 48.4995349 7.14882943 47.6362791 7.41973244 46.9069767 7.80100334 46.3116279 8.29264214 45.7162791 8.78428094 45.2648062 9.36622074 44.9572093 10.0384615 44.6496124 10.7107023 44.495814 11.4381271 44.495814 12.2207358 44.495814 13.0434783 44.6992248 13.7859532 45.1060465 14.4481605 45.5128682 15.1103679 46.1032558 15.7073579 46.8772093 16.2391304 47.6511628 16.770903 48.5888372 17.2575251 49.6902326 17.6989967 50.7916279 18.1404682 52.0368992 18.5518395 53.4260465 18.9331104 55.4105426 19.5150502 57.2362791 20.2274247 58.9032558 21.0702341 60.5702326 21.9130435 62.004031 22.9113712 63.2046512 24.0652174 64.4052713 25.2190635 65.3379845 26.5334448 66.0027907 28.0083612 66.6675969 29.4832776 67 31.1237458 67 32.9297659 67 34.8561873 66.6179845 36.5668896 65.8539535 38.0618729 65.0899225 39.5568562 64.0331783 40.8210702 62.6837209 41.8545151 61.3342636 42.8879599 59.7268217 43.6705686 57.8613953 44.2023411 55.995969 44.7341137 53.9618605 45 51.7590698 45 50.3897674 45 49.0254264 44.8745819 47.6660465 44.6237458 46.3066667 44.3729097 45.0068217 43.9866221 43.7665116 43.4648829 42.5262016 42.9431438 41.3702326 42.2909699 40.2986047 41.5083612 39.2269767 40.7257525 38.2992248 39.812709 37.5153488 38.7692308 36.7314729 37.7257525 36.1162791 36.541806 35.6697674 35.2173913 35.2232558 33.8929766 35 32.4280936 35 30.8227425L43.215814 30.8227425C43.2555039 32.1471572 43.4837209 33.2809365 43.9004651 34.2240803 44.3172093 35.1672241 44.8976744 35.9397993 45.6418605 36.541806 46.3860465 37.1438127 47.2790698 37.5852843 48.3209302 37.8662207 49.3627907 38.1471572 50.5088372 38.2876254 51.7590698 38.2876254 52.8703876 38.2876254 53.8576744 38.1571906 54.7209302 37.8963211 55.584186 37.6354515 56.3134884 37.2742475 56.9088372 36.812709 57.504186 36.3511706 57.9606202 35.7943144 58.2781395 35.1421405 58.5956589 34.4899666 58.7544186 33.7725753 58.7544186 32.9899666zM104 39.2847594C103.466029 39.9465241 102.73429 40.6183155 101.804785 41.3001337 100.875279 41.9819519 99.7727273 42.5985963 98.4971292 43.1500668 97.2215311 43.7015374 95.7926635 44.1477273 94.2105263 44.4886364 92.6283892 44.8295455 90.9275917 45 89.108134 45 86.6558214 45 84.4408293 44.5588235 82.4631579 43.6764706 80.4854864 42.7941176 78.7945774 41.5207219 77.3904306 39.8562834 75.9862839 38.1918449 74.9035088 36.1514037 74.1421053 33.7349599 73.3807018 31.318516 73 28.5762032 73 25.5080214L73 19.552139C73 16.4839572 73.4004785 13.7416444 74.2014354 11.3252005 75.0023923 8.90875668 76.1098884 6.85828877 77.5239234 5.17379679 78.9379585 3.48930481 80.5992026 2.20588235 82.5076555 1.32352941 84.4161085.441176471 86.4877193 0 88.722488 0 91.1550239 0 93.2760766.310828877 95.0856459.932486631 96.8952153 1.55414439 98.4229665 2.45153743 99.6688995 3.62466578 100.914833 4.79779412 101.888836 6.22660428 102.590909 7.91109626 103.292982 9.59558824 103.752791 11.4906417 103.970335 13.5962567L95.8421053 13.5962567C95.5652313 11.3502674 94.8977671 9.66076203 93.8397129 8.52774064 92.7816587 7.39471925 91.1451356 6.82820856 88.9301435 6.82820856 87.862201 6.82820856 86.8733652 7.10394385 85.9636364 7.65541444 85.0539075 8.20688503 84.2628389 9.01403743 83.5904306 10.0768717 82.9180223 11.1397059 82.384051 12.4582219 81.9885167 14.0324198 81.5929825 15.6066176 81.3952153 17.4264706 81.3952153 19.4919786L81.3952153 25.5080214C81.414992 29.5989305 82.0874003 32.7322861 83.4124402 34.9080882 84.7374801 37.0838904 86.7645933 38.1818182 89.4937799 38.2018717 90.1464115 38.2018717 90.7891547 38.151738 91.4220096 38.0514706 92.0548644 37.9512032 92.6481659 37.8108289 93.2019139 37.6303476 93.7556619 37.4498663 94.2451356 37.2443182 94.6703349 37.0137032 95.0955343 36.7830882 95.4169059 36.5374332 95.6344498 36.276738L95.6641148 28.3355615 88.5148325 28.3355615 88.5148325 22.0187166 103.970335 22.0187166 104 39.2847594z"/>
    </g>
  </g>
</svg>
