<svg xmlns="http://www.w3.org/2000/svg" width="170" height="39" viewBox="0 0 170 39">
  <g fill="none" fill-rule="evenodd">
    <text fill="#212120" font-family="RobotoMono-Bold, Roboto Mono" font-size="28" font-weight="bold">
      <tspan x="38" y="29">nfer</tspan>
    </text>
    <circle cx="18" cy="14" r="2" fill="#212120"/>
    <path fill="#F29900" d="M1,28 C0.44771525,28 0,27.5522847 0,27 C0,26.4477153 0.44771525,26 1,26 L3,26 L3,24 L1,24 C0.44771525,24 0,23.5522847 0,23 C0,22.4477153 0.44771525,22 1,22 L3,22 L3,20 L1,20 C0.44771525,20 0,19.5522847 0,19 C0,18.4477153 0.44771525,18 1,18 L3,18 L3,16 L1,16 C0.44771525,16 0,15.5522847 0,15 C0,14.4477153 0.44771525,14 1,14 L3,14 C3,9.581722 6.581722,6 11,6 L11,4 C11,3.44771525 11.4477153,3 12,3 C12.5522847,3 13,3.44771525 13,4 L13,6 L15,6 L15,4 C15,3.44771525 15.4477153,3 16,3 C16.5522847,3 17,3.44771525 17,4 L17,6 L19,6 L19,4 C19,3.44771525 19.4477153,3 20,3 C20.5522847,3 21,3.44771525 21,4 L21,6 L23,6 L23,4 C23,3.44771525 23.4477153,3 24,3 C24.5522847,3 25,3.44771525 25,4 L25,6 C29.418278,6 33,9.581722 33,14 L33,14 L35,14 C35.5522847,14 36,14.4477153 36,15 C36,15.5522847 35.5522847,16 35,16 L33,16 L33,18 L35,18 C35.5522847,18 36,18.4477153 36,19 C36,19.5522847 35.5522847,20 35,20 L33,20 L33,22 L35,22 C35.5522847,22 36,22.4477153 36,23 C36,23.5522847 35.5522847,24 35,24 L33,24 L33,26 L35,26 C35.5522847,26 36,26.4477153 36,27 C36,27.5522847 35.5522847,28 35,28 L33,28 C33,32.418278 29.418278,36 25,36 L25,38 C25,38.5522847 24.5522847,39 24,39 C23.4477153,39 23,38.5522847 23,38 L23,36 L21,36 L21,38 C21,38.5522847 20.5522847,39 20,39 C19.4477153,39 19,38.5522847 19,38 L19,36 L17,36 L17,38 C17,38.5522847 16.5522847,39 16,39 C15.4477153,39 15,38.5522847 15,38 L15,36 L13,36 L13,38 C13,38.5522847 12.5522847,39 12,39 C11.4477153,39 11,38.5522847 11,38 L11,36 C6.581722,36 3,32.418278 3,28 L1,28 Z M25,10 L11,10 C8.790861,10 7,11.790861 7,14 L7,28 C7,30.209139 8.790861,32 11,32 L25,32 C27.209139,32 29,30.209139 29,28 L29,14 C29,11.790861 27.209139,10 25,10 Z"/>
    <path fill="#212120" d="M19,17 L20,17 L20,17 L22.5,17 C23.3284271,17 24,17.6715729 24,18.5 C24,19.3284271 23.3284271,20 22.5,20 L20,20 L20,20 L20,26 L23.5,26 C24.3284271,26 25,26.6715729 25,27.5 C25,28.3284271 24.3284271,29 23.5,29 L13.5,29 C12.6715729,29 12,28.3284271 12,27.5 C12,26.6715729 12.6715729,26 13.5,26 L17,26 L17,26 L17,20 L17,19 C17,17.8954305 17.8954305,17 19,17 Z" transform="matrix(-1 0 0 1 37 0)"/>
    <g fill="#212120" fill-rule="nonzero" transform="translate(111 4)">
      <polygon points="14.758 14.283 4.729 14.283 4.729 21.459 16.452 21.459 16.452 25.422 0 25.422 0 0 16.402 0 16.402 3.998 4.729 3.998 4.729 10.406 14.758 10.406"/>
      <path d="M33.3318336 19.0608696C33.3318336 18.6086957 33.2558408 18.1855072 33.1038551 17.7913043 32.9518694 17.3971014 32.6929308 17.0289855 32.3270394 16.6869565 31.9611479 16.3449275 31.4826744 16.0318841 30.891619 15.7478261 30.3005635 15.4637681 29.565966 15.2 28.6878265 14.9565217 27.6182976 14.6550725 26.596616 14.2782609 25.6227818 13.826087 24.6489475 13.373913 23.7905098 12.8289855 23.0474687 12.1913043 22.3044275 11.5536232 21.7105575 10.8115942 21.2658587 9.96521739 20.8211598 9.11884058 20.5988104 8.14492754 20.5988104 7.04347826 20.5988104 5.97681159 20.8183453 5.00869565 21.257415 4.13913043 21.6964848 3.26956522 22.3044275 2.52753623 23.0812433 1.91304348 23.858059 1.29855072 24.7756023.826086957 25.833873.495652174 26.8921437.165217391 28.04048 0 29.2788819 0 30.5623166 0 31.7359839.191304348 32.7998837.573913043 33.8637835.956521739 34.7785122 1.49275362 35.5440698 2.1826087 36.3096273 2.87246377 36.9063119 3.69275362 37.3341234 4.64347826 37.761935 5.5942029 37.9758408 6.63768116 37.9758408 7.77391304L33.3487209 7.77391304C33.3262045 7.2057971 33.2276953 6.68405797 33.0531932 6.20869565 32.8786911 5.73333333 32.6197525 5.32463768 32.2763775 4.9826087 31.9330024 4.64057971 31.5051908 4.37391304 30.9929428 4.1826087 30.4806947 3.99130435 29.8811956 3.89565217 29.1944454 3.89565217 28.5639863 3.89565217 28.0038909 3.97391304 27.5141592 4.13043478 27.0244275 4.28695652 26.6106887 4.50724638 26.2729428 4.79130435 25.9351968 5.07536232 25.6790727 5.4115942 25.5045707 5.8 25.3300686 6.1884058 25.2428175 6.60869565 25.2428175 7.06086957 25.2428175 7.53623188 25.3582141 7.96521739 25.5890072 8.34782609 25.8198002 8.73043478 26.1547317 9.07536232 26.5938014 9.3826087 27.0328712 9.68985507 27.5648211 9.97101449 28.1896512 10.226087 28.8144812 10.4811594 29.5209332 10.7188406 30.3090072 10.9391304 31.4348271 11.2753623 32.4705814 11.6869565 33.4162701 12.173913 34.3619589 12.6608696 35.1753637 13.2376812 35.8564848 13.9043478 36.5376058 14.5710145 37.0667412 15.3304348 37.4438909 16.1826087 37.8210405 17.0347826 38.0096154 17.9826087 38.0096154 19.026087 38.0096154 20.1391304 37.7928951 21.1275362 37.3594544 21.9913043 36.9260137 22.8550725 36.3265146 23.5855072 35.5609571 24.1826087 34.7953995 24.7797101 33.8834854 25.2318841 32.8252147 25.5391304 31.7669439 25.8463768 30.6129785 26 29.3633184 26 28.5865027 26 27.8125015 25.9275362 27.0413148 25.7826087 26.2701282 25.6376812 25.5327162 25.4144928 24.8290787 25.1130435 24.1254413 24.8115942 23.4696512 24.4347826 22.8617084 23.9826087 22.2537657 23.5304348 21.7274448 23.0028986 21.282746 22.4 20.8380471 21.7971014 20.4890429 21.1130435 20.2357335 20.3478261 19.982424 19.5826087 19.8557692 18.7362319 19.8557692 17.8086957L24.5166637 17.8086957C24.5391801 18.573913 24.6686494 19.2289855 24.9050716 19.773913 25.1414937 20.3188406 25.4707961 20.7652174 25.8929785 21.1130435 26.315161 21.4608696 26.82178 21.715942 27.4128354 21.8782609 28.0038909 22.0405797 28.6540519 22.1217391 29.3633184 22.1217391 29.9937776 22.1217391 30.553873 22.0463768 31.0436047 21.8956522 31.5333363 21.7449275 31.9470751 21.5362319 32.2848211 21.2695652 32.6225671 21.0028986 32.8815057 20.6811594 33.0616369 20.3043478 33.241768 19.9275362 33.3318336 19.5130435 33.3318336 19.0608696zM59 22.697861C58.697074 23.0802139 58.2819531 23.4683601 57.7546375 23.8622995 57.2273218 24.2562389 56.6018357 24.6125223 55.8781791 24.9311497 55.1545225 25.2497772 54.3439149 25.5075758 53.4463563 25.7045455 52.5487977 25.9015152 51.5839222 26 50.5517298 26 49.160514 26 47.903932 25.745098 46.7819838 25.2352941 45.6600356 24.7254902 44.7007698 23.9897504 43.9041866 23.0280749 43.1076034 22.0663993 42.4933367 20.8874777 42.0613866 19.4913102 41.6294366 18.0951426 41.4134615 16.5106952 41.4134615 14.7379679L41.4134615 11.2967914C41.4134615 9.52406417 41.6406561 7.93961676 42.0950451 6.5434492 42.5494341 5.14728164 43.1777251 3.96256684 43.9799181 2.98930481 44.7821111 2.01604278 45.7245476 1.2745098 46.8072276.764705882 47.8899077.254901961 49.0651484 0 50.3329499 0 51.7129463 0 52.9162357.179590018 53.9428184.538770053 54.969401.897950089 55.836106 1.41644385 56.5429334 2.09425134 57.2497608 2.77205882 57.8023203 3.59759358 58.2006119 4.57085561 58.5989035 5.54411765 58.8597565 6.63903743 58.9831708 7.85561497L54.3719636 7.85561497C54.2148908 6.55793226 53.8362333 5.58177362 53.235991 4.92713904 52.6357487 4.27250446 51.7073365 3.94518717 50.4507545 3.94518717 49.8449025 3.94518717 49.2839284 4.10450089 48.7678322 4.42312834 48.251736 4.74175579 47.8029567 5.20811052 47.4214943 5.82219251 47.0400319 6.43627451 46.7371059 7.19808378 46.5127162 8.10762032 46.2883266 9.01715686 46.1761318 10.0686275 46.1761318 11.2620321L46.1761318 14.7379679C46.1873512 17.1016043 46.5688136 18.9119875 47.320519 20.1691176 48.0722243 21.4262478 49.2222212 22.0606061 50.7705098 22.0721925 51.1407527 22.0721925 51.5053858 22.0432264 51.8644093 21.9852941 52.2234327 21.9273619 52.5600172 21.8462567 52.8741627 21.7419786 53.1883082 21.6377005 53.4659904 21.5189394 53.7072092 21.3856952 53.9484281 21.252451 54.1307447 21.1105169 54.254159 20.959893L54.2709882 16.3716578 50.2151454 16.3716578 50.2151454 12.7219251 58.9831708 12.7219251 59 22.697861z"/>
    </g>
  </g>
</svg>
