<svg xmlns="http://www.w3.org/2000/svg" width="170" height="36" viewBox="0 0 170 36">
  <g fill="none" fill-rule="evenodd">
    <path fill="#FAF7F5" fill-rule="nonzero" d="M3.4453125 6.82226562L3.67773438 8.87304688C4.20638021 8.13476562 4.84895833 7.56282552 5.60546875 7.15722656 6.36197917 6.7516276 7.20052083 6.54882812 8.12109375 6.54882812 8.86848958 6.54882812 9.55208333 6.65820312 10.171875 6.87695312 10.7916667 7.09570312 11.3271484 7.44433594 11.7783203 7.92285156 12.2294922 8.40136719 12.5804036 9.01660156 12.8310547 9.76855469 13.0817057 10.5205078 13.2070312 11.4342448 13.2070312 12.5097656L13.2070312 21.6152344 9.40625 21.6152344 9.40625 12.5644531C9.40625 11.9811198 9.34016927 11.5003255 9.20800781 11.1220703 9.07584635 10.7438151 8.88671875 10.4453125 8.640625 10.2265625 8.39453125 10.0078125 8.09830729 9.85514323 7.75195313 9.76855469 7.40559896 9.68196615 7.01367187 9.63867188 6.57617188 9.63867188 5.92903646 9.63867188 5.37760417 9.76855469 4.921875 10.0283203 4.46614583 10.2880859 4.09700521 10.6458333 3.81445312 11.1015625L3.81445312 21.6152344 0 21.6152344 0 6.82226562 3.4453125 6.82226562zM20.4804688 21.6152344L20.4804688 9.625 16.5976562 9.625 16.5976562 6.82226562 20.4804688 6.82226562 20.4804688 6.015625C20.4804688 5.04036458 20.6354167 4.17903646 20.9453125 3.43164062 21.2552083 2.68424479 21.6972656 2.05533854 22.2714844 1.54492188 22.8457031 1.03450521 23.5429688.649414062 24.3632812.389648438 25.1835938.129882812 26.0996094 0 27.1113281 0 27.4303385 0 27.7379557.0113932292 28.0341797.0341796875 28.3304036.0569661458 28.6197917.0865885417 28.9023438.123046875 29.1848958.159505208 29.4697266.200520833 29.7568359.24609375 30.0439453.291666667 30.3424479.341796875 30.6523438.396484375L30.40625 3.37695312C30.0598958 3.30403646 29.6679688 3.24023438 29.2304688 3.18554688 28.7929688 3.13085938 28.2779948 3.10351562 27.6855469 3.10351562 26.500651 3.10351562 25.6393229 3.35416667 25.1015625 3.85546875 24.5638021 4.35677083 24.2949219 5.07682292 24.2949219 6.015625L24.2949219 6.82226562 29.6269531 6.82226562 29.6269531 9.625 24.2949219 9.625 24.2949219 21.6152344 20.4804688 21.6152344zM40.7832031 21.8886719C39.6438802 21.8886719 38.609375 21.7018229 37.6796875 21.328125 36.75 20.9544271 35.952474 20.4462891 35.2871094 19.8037109 34.6217448 19.1611328 34.1090495 18.4046224 33.7490234 17.5341797 33.3889974 16.663737 33.2089844 15.7317708 33.2089844 14.7382812L33.2089844 14.1914062C33.2089844 13.0611979 33.3867188 12.0289714 33.7421875 11.0947266 34.0976562 10.1604818 34.594401 9.35611979 35.2324219 8.68164062 35.8704427 8.00716146 36.6269531 7.48307292 37.5019531 7.109375 38.3769531 6.73567708 39.3294271 6.54882812 40.359375 6.54882812 41.4257812 6.54882812 42.3759766 6.72428385 43.2099609 7.07519531 44.0439453 7.42610677 44.7503255 7.92057292 45.3291016 8.55859375 45.9078776 9.19661458 46.3476562 9.96451823 46.6484375 10.8623047 46.9492188 11.7600911 47.0996094 12.7513021 47.0996094 13.8359375L47.0996094 15.4492188 37.0644531 15.4492188C37.1373698 15.9505208 37.2854818 16.4085286 37.5087891 16.8232422 37.7320964 17.2379557 38.0169271 17.5957031 38.3632812 17.8964844 38.7096354 18.1972656 39.1061198 18.4296875 39.5527344 18.59375 39.999349 18.7578125 40.4869792 18.8398438 41.015625 18.8398438 41.3893229 18.8398438 41.7607422 18.8033854 42.1298828 18.7304688 42.4990234 18.6575521 42.8522135 18.5504557 43.1894531 18.4091797 43.5266927 18.2679036 43.8411458 18.0924479 44.1328125 17.8828125 44.4244792 17.6731771 44.6796875 17.4270833 44.8984375 17.1445312L46.7988281 19.1953125C46.561849 19.5325521 46.2542318 19.8629557 45.8759766 20.1865234 45.4977214 20.5100911 45.0511068 20.7972005 44.5361328 21.0478516 44.0211589 21.2985026 43.4492188 21.5013021 42.8203125 21.65625 42.1914062 21.8111979 41.5123698 21.8886719 40.7832031 21.8886719zM40.3320312 9.625C39.9036458 9.625 39.5117188 9.70019531 39.15625 9.85058594 38.8007812 10.0009766 38.4886068 10.2174479 38.2197266 10.5 37.9508464 10.7825521 37.7252604 11.1197917 37.5429688 11.5117188 37.3606771 11.9036458 37.2239583 12.3411458 37.1328125 12.8242188L43.3671875 12.8242188 43.3671875 12.5234375C43.3489583 12.1223958 43.2714844 11.7441406 43.1347656 11.3886719 42.9980469 11.0332031 42.8020833 10.7255859 42.546875 10.4658203 42.2916667 10.2060547 41.9794922 10.0009766 41.6103516 9.85058594 41.2412109 9.70019531 40.8151042 9.625 40.3320312 9.625zM61.03125 6.54882812C61.6054688 6.54882812 62.1363932 6.5875651 62.6240234 6.66503906 63.1116536 6.74251302 63.5058594 6.82682292 63.8066406 6.91796875L63.2460938 10.7050781C62.7447917 10.5865885 62.2320964 10.4977214 61.7080078 10.4384766 61.1839193 10.3792318 60.6848958 10.3496094 60.2109375 10.3496094 59.1445312 10.3496094 58.2900391 10.5546875 57.6474609 10.9648438 57.0048828 11.375 56.5240885 11.9628906 56.2050781 12.7285156L56.2050781 21.6152344 52.4042969 21.6152344 52.4042969 6.82226562 55.9453125 6.82226562 56.1230469 9.2421875C56.7246094 8.40364583 57.4446615 7.74511719 58.2832031 7.26660156 59.1217448 6.78808594 60.0377604 6.54882812 61.03125 6.54882812z" transform="translate(39.928 4.385)"/>
    <circle cx="18" cy="11" r="2" fill="#FAF7F5"/>
    <path fill="#F29900" d="M1,25 C0.44771525,25 0,24.5522847 0,24 C0,23.4477153 0.44771525,23 1,23 L3,23 L3,21 L1,21 C0.44771525,21 0,20.5522847 0,20 C0,19.4477153 0.44771525,19 1,19 L3,19 L3,17 L1,17 C0.44771525,17 0,16.5522847 0,16 C0,15.4477153 0.44771525,15 1,15 L3,15 L3,13 L1,13 C0.44771525,13 0,12.5522847 0,12 C0,11.4477153 0.44771525,11 1,11 L3,11 C3,6.581722 6.581722,3 11,3 L11,1 C11,0.44771525 11.4477153,1.11022302e-16 12,0 C12.5522847,0 13,0.44771525 13,1 L13,3 L15,3 L15,1 C15,0.44771525 15.4477153,1.11022302e-16 16,0 C16.5522847,0 17,0.44771525 17,1 L17,3 L19,3 L19,1 C19,0.44771525 19.4477153,1.11022302e-16 20,0 C20.5522847,0 21,0.44771525 21,1 L21,3 L23,3 L23,1 C23,0.44771525 23.4477153,1.11022302e-16 24,0 C24.5522847,0 25,0.44771525 25,1 L25,3 C29.418278,3 33,6.581722 33,11 L33,11 L35,11 C35.5522847,11 36,11.4477153 36,12 C36,12.5522847 35.5522847,13 35,13 L33,13 L33,15 L35,15 C35.5522847,15 36,15.4477153 36,16 C36,16.5522847 35.5522847,17 35,17 L33,17 L33,19 L35,19 C35.5522847,19 36,19.4477153 36,20 C36,20.5522847 35.5522847,21 35,21 L33,21 L33,23 L35,23 C35.5522847,23 36,23.4477153 36,24 C36,24.5522847 35.5522847,25 35,25 L33,25 C33,29.418278 29.418278,33 25,33 L25,35 C25,35.5522847 24.5522847,36 24,36 C23.4477153,36 23,35.5522847 23,35 L23,33 L21,33 L21,35 C21,35.5522847 20.5522847,36 20,36 C19.4477153,36 19,35.5522847 19,35 L19,33 L17,33 L17,35 C17,35.5522847 16.5522847,36 16,36 C15.4477153,36 15,35.5522847 15,35 L15,33 L13,33 L13,35 C13,35.5522847 12.5522847,36 12,36 C11.4477153,36 11,35.5522847 11,35 L11,33 C6.581722,33 3,29.418278 3,25 L1,25 Z M25,7 L11,7 C8.790861,7 7,8.790861 7,11 L7,25 C7,27.209139 8.790861,29 11,29 L25,29 C27.209139,29 29,27.209139 29,25 L29,11 C29,8.790861 27.209139,7 25,7 Z"/>
    <path fill="#FAF7F5" d="M19,14 L20,14 L20,14 L22.5,14 C23.3284271,14 24,14.6715729 24,15.5 C24,16.3284271 23.3284271,17 22.5,17 L20,17 L20,17 L20,23 L23.5,23 C24.3284271,23 25,23.6715729 25,24.5 C25,25.3284271 24.3284271,26 23.5,26 L13.5,26 C12.6715729,26 12,25.3284271 12,24.5 C12,23.6715729 12.6715729,23 13.5,23 L17,23 L17,23 L17,17 L17,16 C17,14.8954305 17.8954305,14 19,14 Z" transform="matrix(-1 0 0 1 37 0)"/>
    <g fill="#FAF7F5" fill-rule="nonzero" transform="translate(111 1)">
      <polygon points="14.758 14.283 4.729 14.283 4.729 21.459 16.452 21.459 16.452 25.422 0 25.422 0 0 16.402 0 16.402 3.998 4.729 3.998 4.729 10.406 14.758 10.406"/>
      <path d="M33.3318336 19.0608696C33.3318336 18.6086957 33.2558408 18.1855072 33.1038551 17.7913043 32.9518694 17.3971014 32.6929308 17.0289855 32.3270394 16.6869565 31.9611479 16.3449275 31.4826744 16.0318841 30.891619 15.7478261 30.3005635 15.4637681 29.565966 15.2 28.6878265 14.9565217 27.6182976 14.6550725 26.596616 14.2782609 25.6227818 13.826087 24.6489475 13.373913 23.7905098 12.8289855 23.0474687 12.1913043 22.3044275 11.5536232 21.7105575 10.8115942 21.2658587 9.96521739 20.8211598 9.11884058 20.5988104 8.14492754 20.5988104 7.04347826 20.5988104 5.97681159 20.8183453 5.00869565 21.257415 4.13913043 21.6964848 3.26956522 22.3044275 2.52753623 23.0812433 1.91304348 23.858059 1.29855072 24.7756023.826086957 25.833873.495652174 26.8921437.165217391 28.04048 0 29.2788819 0 30.5623166 0 31.7359839.191304348 32.7998837.573913043 33.8637835.956521739 34.7785122 1.49275362 35.5440698 2.1826087 36.3096273 2.87246377 36.9063119 3.69275362 37.3341234 4.64347826 37.761935 5.5942029 37.9758408 6.63768116 37.9758408 7.77391304L33.3487209 7.77391304C33.3262045 7.2057971 33.2276953 6.68405797 33.0531932 6.20869565 32.8786911 5.73333333 32.6197525 5.32463768 32.2763775 4.9826087 31.9330024 4.64057971 31.5051908 4.37391304 30.9929428 4.1826087 30.4806947 3.99130435 29.8811956 3.89565217 29.1944454 3.89565217 28.5639863 3.89565217 28.0038909 3.97391304 27.5141592 4.13043478 27.0244275 4.28695652 26.6106887 4.50724638 26.2729428 4.79130435 25.9351968 5.07536232 25.6790727 5.4115942 25.5045707 5.8 25.3300686 6.1884058 25.2428175 6.60869565 25.2428175 7.06086957 25.2428175 7.53623188 25.3582141 7.96521739 25.5890072 8.34782609 25.8198002 8.73043478 26.1547317 9.07536232 26.5938014 9.3826087 27.0328712 9.68985507 27.5648211 9.97101449 28.1896512 10.226087 28.8144812 10.4811594 29.5209332 10.7188406 30.3090072 10.9391304 31.4348271 11.2753623 32.4705814 11.6869565 33.4162701 12.173913 34.3619589 12.6608696 35.1753637 13.2376812 35.8564848 13.9043478 36.5376058 14.5710145 37.0667412 15.3304348 37.4438909 16.1826087 37.8210405 17.0347826 38.0096154 17.9826087 38.0096154 19.026087 38.0096154 20.1391304 37.7928951 21.1275362 37.3594544 21.9913043 36.9260137 22.8550725 36.3265146 23.5855072 35.5609571 24.1826087 34.7953995 24.7797101 33.8834854 25.2318841 32.8252147 25.5391304 31.7669439 25.8463768 30.6129785 26 29.3633184 26 28.5865027 26 27.8125015 25.9275362 27.0413148 25.7826087 26.2701282 25.6376812 25.5327162 25.4144928 24.8290787 25.1130435 24.1254413 24.8115942 23.4696512 24.4347826 22.8617084 23.9826087 22.2537657 23.5304348 21.7274448 23.0028986 21.282746 22.4 20.8380471 21.7971014 20.4890429 21.1130435 20.2357335 20.3478261 19.982424 19.5826087 19.8557692 18.7362319 19.8557692 17.8086957L24.5166637 17.8086957C24.5391801 18.573913 24.6686494 19.2289855 24.9050716 19.773913 25.1414937 20.3188406 25.4707961 20.7652174 25.8929785 21.1130435 26.315161 21.4608696 26.82178 21.715942 27.4128354 21.8782609 28.0038909 22.0405797 28.6540519 22.1217391 29.3633184 22.1217391 29.9937776 22.1217391 30.553873 22.0463768 31.0436047 21.8956522 31.5333363 21.7449275 31.9470751 21.5362319 32.2848211 21.2695652 32.6225671 21.0028986 32.8815057 20.6811594 33.0616369 20.3043478 33.241768 19.9275362 33.3318336 19.5130435 33.3318336 19.0608696zM59 22.697861C58.697074 23.0802139 58.2819531 23.4683601 57.7546375 23.8622995 57.2273218 24.2562389 56.6018357 24.6125223 55.8781791 24.9311497 55.1545225 25.2497772 54.3439149 25.5075758 53.4463563 25.7045455 52.5487977 25.9015152 51.5839222 26 50.5517298 26 49.160514 26 47.903932 25.745098 46.7819838 25.2352941 45.6600356 24.7254902 44.7007698 23.9897504 43.9041866 23.0280749 43.1076034 22.0663993 42.4933367 20.8874777 42.0613866 19.4913102 41.6294366 18.0951426 41.4134615 16.5106952 41.4134615 14.7379679L41.4134615 11.2967914C41.4134615 9.52406417 41.6406561 7.93961676 42.0950451 6.5434492 42.5494341 5.14728164 43.1777251 3.96256684 43.9799181 2.98930481 44.7821111 2.01604278 45.7245476 1.2745098 46.8072276.764705882 47.8899077.254901961 49.0651484 0 50.3329499 0 51.7129463 0 52.9162357.179590018 53.9428184.538770053 54.969401.897950089 55.836106 1.41644385 56.5429334 2.09425134 57.2497608 2.77205882 57.8023203 3.59759358 58.2006119 4.57085561 58.5989035 5.54411765 58.8597565 6.63903743 58.9831708 7.85561497L54.3719636 7.85561497C54.2148908 6.55793226 53.8362333 5.58177362 53.235991 4.92713904 52.6357487 4.27250446 51.7073365 3.94518717 50.4507545 3.94518717 49.8449025 3.94518717 49.2839284 4.10450089 48.7678322 4.42312834 48.251736 4.74175579 47.8029567 5.20811052 47.4214943 5.82219251 47.0400319 6.43627451 46.7371059 7.19808378 46.5127162 8.10762032 46.2883266 9.01715686 46.1761318 10.0686275 46.1761318 11.2620321L46.1761318 14.7379679C46.1873512 17.1016043 46.5688136 18.9119875 47.320519 20.1691176 48.0722243 21.4262478 49.2222212 22.0606061 50.7705098 22.0721925 51.1407527 22.0721925 51.5053858 22.0432264 51.8644093 21.9852941 52.2234327 21.9273619 52.5600172 21.8462567 52.8741627 21.7419786 53.1883082 21.6377005 53.4659904 21.5189394 53.7072092 21.3856952 53.9484281 21.252451 54.1307447 21.1105169 54.254159 20.959893L54.2709882 16.3716578 50.2151454 16.3716578 50.2151454 12.7219251 58.9831708 12.7219251 59 22.697861z"/>
    </g>
  </g>
</svg>
