<svg xmlns="http://www.w3.org/2000/svg" width="24" height="24" viewBox="0 0 24 24">
  <g fill="none" fill-rule="evenodd">
    <rect width="24" height="24"/>
    <path fill="#212120" fill-rule="nonzero" d="M10.8,14.1879867 L10.8,5.97736581 L10.8,5.97736581 L8.37773812,8.25860672 C7.98769244,8.62594443 7.3774341,8.62059569 6.99388707,8.24647766 L6.74687833,8.0055413 C6.35152465,7.61990687 6.34364565,6.98679091 6.72928008,6.59143724 C6.73915312,6.58131536 6.74923973,6.57140403 6.7595331,6.56170993 L11.3144019,2.27201979 C11.6995157,1.90932674 12.3004843,1.90932674 12.6855981,2.27201979 L17.2404669,6.56170993 C17.6425193,6.94035533 17.6614944,7.57323591 17.282849,7.97528828 C17.2731549,7.98558165 17.2632435,7.99566826 17.2531217,8.0055413 L17.0061129,8.24647766 C16.6225659,8.62059569 16.0123076,8.62594443 15.6222619,8.25860672 L13.2,5.97736581 L13.2,5.97736581 L13.2,14.1879867 C13.2,14.7402715 12.7522847,15.1879867 12.2,15.1879867 L11.8,15.1879867 C11.2477153,15.1879867 10.8,14.7402715 10.8,14.1879867 Z M5.25,22.0001227 C4.63125,22.0001227 4.1015625,21.7724807 3.6609375,21.3171967 C3.2203125,20.8619127 3,20.3146032 3,19.6752683 L3,16.1879867 L5.25,16.1879867 L5.25,19.6752683 L18.75,19.6752683 L18.75,16.1879867 L21,16.1879867 L21,19.6752683 C21,20.3146032 20.7796875,20.8619127 20.3390625,21.3171967 C19.8984375,21.7724807 19.36875,22.0001227 18.75,22.0001227 L5.25,22.0001227 Z"/>
  </g>
</svg>
