<svg xmlns="http://www.w3.org/2000/svg" width="24" height="24" viewBox="0 0 24 24">
  <g fill="none" fill-rule="evenodd">
    <rect width="24" height="24"/>
    <path fill="#212120" fill-rule="nonzero" d="M11.0362954,22 C9.76804339,21.8659966 8.58740092,21.5184255 7.49436796,20.9572864 C6.401335,20.3961474 5.44597413,19.6675042 4.62828536,18.7713568 C3.81059658,17.8752094 3.16812683,16.8492462 2.7008761,15.6934673 C2.23362537,14.5376884 2,13.3065327 2,12 C2,9.37018425 2.87192324,7.10887772 4.61576971,5.2160804 C6.35961619,3.32328308 8.49979141,2.25125628 11.0362954,2 L11.0362954,4.03517588 C9.05047977,4.28643216 7.38172716,5.16164154 6.03003755,6.66080402 C4.67834793,8.1599665 4.00250313,9.93969849 4.00250313,12 C4.00250313,14.0603015 4.67834793,15.8400335 6.03003755,17.339196 C7.38172716,18.8383585 9.05047977,19.7135678 11.0362954,19.9648241 L11.0362954,22 Z M11.0362954,17.0251256 L11.0362954,10.8190955 L8.4330413,13.4321608 L7.03128911,12 L12.0375469,6.97487437 L17.0438048,12 L15.6170213,13.4070352 L13.0387985,10.8190955 L13.0387985,17.0251256 L11.0362954,17.0251256 Z M13.0387985,22 L13.0387985,19.9648241 C13.7730496,19.881072 14.4697539,19.6968174 15.1289111,19.4120603 C15.7880684,19.1273032 16.3929912,18.7671692 16.9436796,18.3316583 L18.3704631,19.7889447 C17.6195244,20.3919598 16.7934919,20.8860972 15.8923655,21.2713568 C14.991239,21.6566164 14.0400501,21.8994975 13.0387985,22 Z M16.9186483,5.66834171 C16.3679599,5.23283082 15.767209,4.87269682 15.1163955,4.5879397 C14.465582,4.30318258 13.7730496,4.11892797 13.0387985,4.03517588 L13.0387985,2 C14.0400501,2.10050251 14.991239,2.34338358 15.8923655,2.72864322 C16.7934919,3.11390285 17.6195244,3.6080402 18.3704631,4.21105528 L16.9186483,5.66834171 Z M19.7722153,18.3567839 L18.3454318,16.9246231 C18.7793075,16.3718593 19.1380893,15.7646566 19.4217772,15.1030151 C19.7054652,14.4413735 19.889028,13.7420436 19.9724656,13.0050251 L22,13.0050251 C21.8998748,14.0100503 21.6537338,14.9648241 21.261577,15.8693467 C20.8694201,16.7738693 20.3729662,17.6030151 19.7722153,18.3567839 Z M19.9724656,10.9949749 C19.889028,10.2579564 19.7054652,9.55862647 19.4217772,8.89698492 C19.1380893,8.23534338 18.7793075,7.6281407 18.3454318,7.07537688 L19.7722153,5.64321608 C20.3729662,6.39698492 20.8694201,7.22613065 21.261577,8.13065327 C21.6537338,9.03517588 21.8998748,9.98994975 22,10.9949749 L19.9724656,10.9949749 Z"/>
  </g>
</svg>
