<svg xmlns="http://www.w3.org/2000/svg" width="24" height="24" viewBox="0 0 24 24">
  <g fill="none" fill-rule="evenodd">
    <rect width="24" height="24"/>
    <path fill="#212120" fill-rule="nonzero" d="M11,19 L13,19 L13,14.825 L14.6,16.425 L16,15 L12,11 L8,15 L9.425,16.4 L11,14.825 L11,19 Z M6,22 C5.45,22 4.97916667,21.8041667 4.5875,21.4125 C4.19583333,21.0208333 4,20.55 4,20 L4,4 C4,3.45 4.19583333,2.97916667 4.5875,2.5875 C4.97916667,2.19583333 5.45,2 6,2 L14,2 L20,8 L20,20 C20,20.55 19.8041667,21.0208333 19.4125,21.4125 C19.0208333,21.8041667 18.55,22 18,22 L6,22 Z M13,9 L18,9 L13,4 L13,9 Z"/>
  </g>
</svg>
